HIERARCHY
ROOT Hips
{
	OFFSET -0.001795 -0.223333 0.028219
	CHANNELS 6 Xposition Yposition Zposition Zrotation Yrotation Xrotation 
	JOINT LeftUpLeg
	{
		OFFSET 0.069520 -0.091406 -0.006815
		CHANNELS 3 Zrotation Yrotation Xrotation
		JOINT LeftLeg
		{
			OFFSET 0.034277 -0.375199 -0.004496
			CHANNELS 3 Zrotation Yrotation Xrotation
			JOINT LeftFoot
			{
				OFFSET -0.013596 -0.397961 -0.043693
				CHANNELS 3 Zrotation Yrotation Xrotation
				JOINT LeftToe
				{
					OFFSET 0.026358 -0.055791 0.119288
					CHANNELS 3 Zrotation Yrotation Xrotation
					End Site
					{
						OFFSET 0.000000 0.000000 0.000000
					}
				}
			}
		}
	}
	JOINT RightUpLeg
	{
		OFFSET -0.067670 -0.090522 -0.004320
		CHANNELS 3 Zrotation Yrotation Xrotation
		JOINT RightLeg
		{
			OFFSET -0.038290 -0.382569 -0.008850
			CHANNELS 3 Zrotation Yrotation Xrotation
			JOINT RightFoot
			{
				OFFSET 0.015774 -0.398415 -0.042312
				CHANNELS 3 Zrotation Yrotation Xrotation
				JOINT RightToe
				{
					OFFSET -0.025372 -0.048144 0.123348
					CHANNELS 3 Zrotation Yrotation Xrotation
					End Site
					{
						OFFSET 0.000000 0.000000 0.000000
					}
				}
			}
		}
	}
	JOINT Spine
	{
		OFFSET -0.002533 0.108963 -0.026696
		CHANNELS 3 Zrotation Yrotation Xrotation
		JOINT Spine1
		{
			OFFSET 0.005487 0.135180 0.001092
			CHANNELS 3 Zrotation Yrotation Xrotation
			JOINT Spine2
			{
				OFFSET 0.001457 0.052922 0.025425
				CHANNELS 3 Zrotation Yrotation Xrotation
				JOINT Neck
				{
					OFFSET -0.002778 0.213870 -0.042857
					CHANNELS 3 Zrotation Yrotation Xrotation
					JOINT Head
					{
						OFFSET 0.005152 0.064970 0.051349
						CHANNELS 3 Zrotation Yrotation Xrotation
						End Site
						{
							OFFSET 0.000000 0.000000 0.000000
						}
					}
				}
				JOINT LeftShoulder
				{
					OFFSET 0.078845 0.121749 -0.034090
					CHANNELS 3 Zrotation Yrotation Xrotation
					JOINT LeftArm
					{
						OFFSET 0.090977 0.030469 -0.008868
						CHANNELS 3 Zrotation Yrotation Xrotation
						JOINT LeftForeArm
						{
							OFFSET 0.259612 -0.012772 -0.027456
							CHANNELS 3 Zrotation Yrotation Xrotation
							JOINT LeftHand
							{
								OFFSET 0.249234 0.008986 -0.001171
								CHANNELS 3 Zrotation Yrotation Xrotation
								End Site
								{
									OFFSET 0.000000 0.000000 0.000000
								}
							}
						}
					}
				}
				JOINT RightShoulder
				{
					OFFSET -0.081759 0.118833 -0.038615
					CHANNELS 3 Zrotation Yrotation Xrotation
					JOINT RightArm
					{
						OFFSET -0.096012 0.032551 -0.009143
						CHANNELS 3 Zrotation Yrotation Xrotation
						JOINT RightForeArm
						{
							OFFSET -0.253742 -0.013329 -0.021401
							CHANNELS 3 Zrotation Yrotation Xrotation
							JOINT RightHand
							{
								OFFSET -0.255298 0.007772 -0.005559
								CHANNELS 3 Zrotation Yrotation Xrotation
								End Site
								{
									OFFSET 0.000000 0.000000 0.000000
								}
							}
						}
					}
				}
			}
		}
	}
}
MOTION
Frames: 7
Frame Time: 0.050000
0.327887 0.939381 1.497657 2.942513 15.399866 13.886535 6.517448 -1.302259 -16.626673 -0.812230 0.160625 -4.504529 1.125741 10.745070 19.495636 0.000000 0.000000 0.000000 -7.025261 0.256868 -24.323825 3.009795 -0.504664 9.143747 -3.218511 -8.870668 10.934263 0.000000 0.000000 0.000000 9.594048 -3.117729 16.216221 -2.409908 0.905438 1.450562 -2.250947 10.481937 5.675126 14.025228 -4.150452 -21.452667 0.000000 0.000000 0.000000 -37.251162 -25.069005 5.347899 -26.889149 -7.669841 0.594557 23.099489 -73.126619 -16.308336 0.000000 0.000000 0.000000 27.008641 19.041420 17.652655 15.032250 16.965853 -1.430699 -31.203610 23.667321 -4.597570 0.000000 0.000000 0.000000 
0.347593 0.938684 1.495656 1.854840 14.124561 12.836604 6.447064 -1.234898 -16.331182 -1.066265 0.143597 -2.754767 2.294476 11.580134 17.426615 0.000000 0.000000 0.000000 -6.632901 0.428582 -24.503235 2.038648 -0.292028 10.909653 -2.569509 -7.816346 11.246264 0.000000 0.000000 0.000000 8.432997 -2.669140 15.490895 -2.441611 0.985625 0.639266 -1.604763 9.350407 6.078246 12.497680 -3.521755 -21.299423 0.000000 0.000000 0.000000 -36.759400 -24.154629 5.643030 -26.812127 -6.920279 0.204021 28.373736 -74.302693 -20.581272 0.000000 0.000000 0.000000 27.971149 18.308504 16.840708 19.514630 14.994206 -1.566336 -34.501312 29.849654 -6.746191 0.000000 0.000000 0.000000 
0.369892 0.937796 1.493813 1.010896 13.455556 11.445101 5.827886 -1.135143 -14.915738 -1.170477 0.142989 -2.333881 3.027224 11.947215 15.315525 0.000000 0.000000 0.000000 -6.324440 0.539824 -23.875081 0.549299 0.056921 12.323228 -2.154081 -7.157432 11.634524 0.000000 0.000000 0.000000 7.609461 -2.271669 14.387723 -2.454181 1.048310 -0.146564 -1.216183 7.853595 6.564448 11.910035 -3.456771 -21.067210 0.000000 0.000000 0.000000 -37.100930 -22.264697 5.138583 -26.254944 -6.972675 -0.017888 20.571593 -75.881033 -14.680912 0.000000 0.000000 0.000000 30.260131 15.763909 15.029701 22.914220 12.797950 -1.893779 -38.319594 37.644316 -10.021007 0.000000 0.000000 0.000000 
0.391406 0.937725 1.492257 0.375813 12.278550 10.166889 5.163483 -1.029802 -13.473145 -1.510838 0.159949 -1.941074 3.920560 12.673912 13.712329 0.000000 0.000000 0.000000 -6.645744 0.535846 -24.056817 -0.108252 0.244365 14.781280 -1.416473 -6.069738 12.517466 0.000000 0.000000 0.000000 6.404412 -1.805827 13.090013 -2.227335 0.998271 -0.898769 -1.358715 6.228378 6.965607 10.865742 -3.245849 -20.477113 0.000000 0.000000 0.000000 -36.106768 -20.770069 5.211893 -26.503998 -6.514192 -0.425940 14.628398 -76.276767 -9.899020 0.000000 0.000000 0.000000 32.953273 12.944683 12.674947 27.116092 9.565895 -2.464246 -40.561869 46.579920 -13.863833 0.000000 0.000000 0.000000 
0.409870 0.938068 1.492015 -0.286375 11.363583 8.849827 4.581919 -0.879313 -11.331028 -1.556910 0.181248 -2.750748 4.508290 13.156688 12.646047 0.000000 0.000000 0.000000 -6.177683 0.671549 -24.253836 -1.020941 0.524906 17.105033 -1.759611 -7.146334 14.149838 0.000000 0.000000 0.000000 5.111023 -1.349995 11.456684 -1.926184 0.853112 -0.353985 -0.973777 4.502594 6.341051 9.797021 -3.124981 -19.283653 0.000000 0.000000 0.000000 -36.063035 -18.973965 5.044767 -26.066991 -5.812416 -0.800391 6.818151 -76.882384 -3.466519 0.000000 0.000000 0.000000 34.794749 9.682960 9.298204 30.638859 4.456307 -3.390977 -38.831780 55.434010 -16.426882 0.000000 0.000000 0.000000 
0.424418 0.939878 1.493712 -1.224936 10.418224 7.157337 4.220329 -0.693717 -8.770463 -0.958408 0.166454 -3.523462 4.978723 13.614258 12.131885 0.000000 0.000000 0.000000 -5.036048 0.950763 -24.712899 -0.791879 0.514595 19.753004 -2.587647 -8.613922 12.581493 0.000000 0.000000 0.000000 4.323991 -1.035572 9.900718 -1.163139 0.515215 -0.203218 -1.655283 3.075614 6.421368 9.594277 -3.400605 -18.344356 0.000000 0.000000 0.000000 -35.251802 -17.579970 4.934708 -25.330682 -5.817341 -1.014887 0.441981 -76.158891 1.791575 0.000000 0.000000 0.000000 36.571343 6.966445 6.385194 32.911325 -0.341289 -4.441404 -33.479575 62.354099 -16.108897 0.000000 0.000000 0.000000 
0.435956 0.942601 1.497155 -2.026755 9.591881 5.828592 4.270749 -0.528720 -6.398022 -0.913890 0.187216 -4.529233 5.285609 13.988896 12.246032 0.000000 0.000000 0.000000 -3.268552 1.352111 -24.587100 -0.226884 0.389954 20.555002 -2.914505 -9.036792 10.329505 0.000000 0.000000 0.000000 4.087354 -0.859936 8.650533 -1.047626 0.470069 -0.153172 -1.796498 1.775749 6.247774 8.602959 -3.155997 -17.454824 0.000000 0.000000 0.000000 -34.294172 -16.355490 4.883124 -24.364328 -6.292080 -1.096887 -3.995695 -76.710483 5.519970 0.000000 0.000000 0.000000 36.601674 4.887385 3.798242 35.381692 -4.242647 -5.456176 -21.925947 66.303342 -10.151326 0.000000 0.000000 0.000000 
